<?xml version="1.0" encoding="UTF-8"?><svg id="a" xmlns="http://www.w3.org/2000/svg" width="175" height="175" xmlns:xlink="http://www.w3.org/1999/xlink" viewBox="0 0 175 175"><defs><filter id="b" filterUnits="userSpaceOnUse"><feOffset dx="-1.5" dy="2"/><feGaussianBlur result="c" stdDeviation="1.4211"/><feFlood flood-color="#000" flood-opacity=".75"/><feComposite in2="c" operator="in"/><feComposite in="SourceGraphic"/></filter><filter id="d" filterUnits="userSpaceOnUse"><feOffset dx="-1.5" dy="2"/><feGaussianBlur result="e" stdDeviation="1.4211"/><feFlood flood-color="#000" flood-opacity=".75"/><feComposite in2="e" operator="in"/><feComposite in="SourceGraphic"/></filter><filter id="f" filterUnits="userSpaceOnUse"><feOffset dx="2.8422" dy="2.1317"/><feGaussianBlur result="g" stdDeviation="1.4211"/><feFlood flood-color="#000" flood-opacity=".75"/><feComposite in2="g" operator="in"/><feComposite in="SourceGraphic"/></filter><filter id="h" filterUnits="userSpaceOnUse"><feOffset dx="2.8422" dy="2.1317"/><feGaussianBlur result="i" stdDeviation="2"/><feFlood flood-color="#000" flood-opacity=".75"/><feComposite in2="i" operator="in"/><feComposite in="SourceGraphic"/></filter></defs><g style="opacity:.25;"><polygon points="42.1525 66.5569 61.7122 49.2326 81.2719 49.2326 81.2719 79.8611 61.7122 96.5767 42.1525 66.5569" style="fill:#fff;"/><polygon points="81.2719 137.1715 42.1525 171.2848 42.1525 124.5496 58.8357 109.1986 81.2719 137.1715" style="fill:#fff;"/><polygon points="2.504 32.3775 2.504 91.9375 34.3861 109.1986 34.3861 27.6678 2.504 32.3775" style="fill:#fff;"/></g><polygon points="81.2719 89.754 81.2719 137.1715 42.1525 113.4627 42.1525 66.5569 81.2719 89.754" style="fill:#fff; filter:url(#b);"/><polygon points="81.2719 79.8611 81.2719 32.4436 34.0985 4.4707 2.504 32.3775 81.2719 79.8611" style="fill:#fff; filter:url(#d);"/><g style="opacity:.25;"><polygon points="131.7095 66.5569 112.1497 49.2326 92.59 49.2326 92.59 79.8611 112.1497 96.5767 131.7095 66.5569" style="fill:#fff;"/><polygon points="92.59 137.1715 131.7095 171.2848 131.7095 124.5496 115.0262 109.1986 92.59 137.1715" style="fill:#fff;"/><polygon points="171.3579 32.3775 171.3579 91.9375 139.4758 109.1986 139.4758 27.6678 171.3579 32.3775" style="fill:#fff;"/></g><polygon points="92.59 89.754 92.59 137.1715 131.7095 113.4627 131.7095 66.5569 92.59 89.754" style="fill:#fff; filter:url(#f);"/><polygon points="92.59 79.8611 92.59 32.4436 139.7635 4.4707 171.3579 32.3775 92.59 79.8611" style="fill:#fff; filter:url(#h);"/></svg>